# Blender v2.76 (sub 0) OBJ File: 'exclamationmark.blend'
# www.blender.org
o ExclamationMark
v 0.019954 0.147893 0.033164
v 0.020466 0.154964 0.040235
v 0.027553 0.155133 0.033164
v -0.047923 0.660549 0.033165
v -0.047407 0.653478 0.040236
v -0.054495 0.653652 0.033165
v 0.045140 0.660549 0.033165
v 0.051712 0.653652 0.033165
v 0.044624 0.653478 0.040236
v -0.022737 0.147893 0.033164
v -0.030336 0.155133 0.033164
v -0.023248 0.154964 0.040235
v 0.019954 0.147893 -0.032694
v 0.027553 0.155133 -0.032694
v 0.020466 0.154964 -0.039765
v 0.044624 0.653478 -0.039764
v 0.051712 0.653652 -0.032693
v 0.045140 0.660549 -0.032693
v -0.047923 0.660549 -0.032693
v -0.054495 0.653652 -0.032693
v -0.047407 0.653478 -0.039764
v -0.030336 0.155133 -0.032694
v -0.022737 0.147893 -0.032694
v -0.023248 0.154964 -0.039765
v 0.040163 0.045443 0.040235
v 0.045484 0.050393 0.033164
v 0.050621 0.027021 0.040235
v 0.057437 0.029338 0.033164
v 0.023341 0.056668 0.040235
v 0.025991 0.063401 0.033164
v -0.000597 0.060570 0.040235
v -0.000610 0.067736 0.033164
v 0.054281 0.000865 0.040235
v 0.061421 0.000861 0.033164
v 0.050561 -0.025510 0.040235
v 0.057378 -0.027810 0.033164
v 0.039877 -0.044574 0.040235
v 0.045249 -0.049451 0.033164
v 0.022951 -0.056343 0.040235
v 0.025698 -0.063045 0.033164
v -0.000590 -0.060397 0.040235
v -0.000610 -0.067576 0.033164
v -0.051751 -0.024904 0.040235
v -0.058559 -0.027224 0.033164
v -0.062641 0.000861 0.033164
v -0.055498 0.000873 0.040235
v -0.051862 0.026444 0.040235
v -0.058677 0.028752 0.033164
v -0.024601 0.056566 0.040235
v -0.027309 0.063283 0.033164
v -0.041424 0.045025 0.040235
v -0.046782 0.049924 0.033164
v -0.023918 -0.056245 0.040235
v -0.026723 -0.062928 0.033164
v -0.040926 -0.044138 0.040235
v -0.046313 -0.048982 0.033164
v 0.045484 0.050393 -0.032694
v 0.040163 0.045443 -0.039765
v 0.023341 0.056668 -0.039765
v 0.025991 0.063401 -0.032694
v 0.050621 0.027021 -0.039765
v 0.057437 0.029338 -0.032694
v -0.000597 0.060570 -0.039765
v -0.000610 0.067736 -0.032694
v 0.054281 0.000865 -0.039765
v 0.061421 0.000861 -0.032694
v 0.050561 -0.025510 -0.039765
v 0.057378 -0.027810 -0.032694
v 0.022951 -0.056343 -0.039765
v 0.025698 -0.063045 -0.032694
v 0.039877 -0.044574 -0.039765
v 0.045249 -0.049451 -0.032694
v -0.000590 -0.060397 -0.039765
v -0.000610 -0.067576 -0.032694
v -0.051751 -0.024904 -0.039765
v -0.058559 -0.027224 -0.032694
v -0.055498 0.000873 -0.039765
v -0.062641 0.000861 -0.032694
v -0.024601 0.056566 -0.039765
v -0.027309 0.063283 -0.032694
v -0.051862 0.026444 -0.039765
v -0.058677 0.028752 -0.032694
v -0.041424 0.045025 -0.039765
v -0.046782 0.049924 -0.032694
v -0.023918 -0.056245 -0.039765
v -0.026723 -0.062928 -0.032694
v -0.040926 -0.044138 -0.039765
v -0.046313 -0.048982 -0.032694
vn -0.998800 -0.048400 0.000000
vn 0.990400 0.138600 0.000000
vn 0.000000 0.000000 -1.000000
vn -0.164500 0.986400 0.000000
vn -0.579900 -0.814700 -0.000000
vn 0.872300 -0.488900 -0.000000
vn 0.869600 0.493700 0.000000
vn -0.000000 -0.000000 1.000000
vn 0.998800 -0.048400 0.000000
vn 0.570900 -0.821000 -0.000000
vn 0.000000 1.000000 0.000000
vn -0.175300 -0.984500 -0.000000
vn -0.871800 0.489800 0.000000
vn 0.169700 -0.985500 -0.000000
vn 0.990200 -0.139600 -0.000000
vn -0.871500 -0.490500 -0.000000
vn -0.565700 0.824600 0.000000
vn -0.990000 0.140700 0.000000
vn -0.989600 -0.143800 -0.000000
vn 0.160900 0.987000 0.000000
vn 0.000000 -1.000000 -0.000000
vn 0.555100 0.831800 0.000000
vn 0.443600 -0.771000 0.457000
vn 0.748600 -0.480400 0.457000
vn 0.459600 -0.482400 0.745700
vn -0.477400 0.745800 0.464600
vn -0.768000 0.440700 0.464600
vn -0.460500 0.438800 0.771600
vn 0.477400 0.745800 0.464600
vn 0.460500 0.438800 0.771600
vn 0.768000 0.440700 0.464600
vn -0.443600 -0.771000 0.457000
vn -0.459600 -0.482400 0.745700
vn -0.748600 -0.480400 0.457000
vn 0.443600 -0.771000 -0.457000
vn 0.459600 -0.482400 -0.745700
vn 0.748600 -0.480400 -0.457000
vn 0.460500 0.438800 -0.771600
vn 0.477400 0.745800 -0.464600
vn 0.768000 0.440700 -0.464600
vn -0.477400 0.745800 -0.464600
vn -0.460500 0.438800 -0.771600
vn -0.768000 0.440700 -0.464600
vn -0.748600 -0.480400 -0.457000
vn -0.459600 -0.482400 -0.745700
vn -0.443600 -0.771000 -0.457000
vn -0.663600 -0.226200 -0.713100
vn -0.519300 -0.467000 -0.715700
vn 0.663500 0.225500 0.713400
vn 0.703600 -0.000400 0.710600
vn -0.703500 -0.001100 -0.710700
vn -0.663600 -0.226200 0.713100
vn -0.703500 -0.001100 0.710700
vn -0.002000 -0.701700 -0.712400
vn -0.270300 -0.643900 -0.715800
vn -0.663900 0.224900 -0.713200
vn -0.514900 0.470800 -0.716400
vn 0.516800 -0.469100 0.716200
vn 0.265000 -0.646300 0.715600
vn 0.663500 0.225500 -0.713400
vn 0.703600 -0.000400 -0.710600
vn -0.663900 0.224800 0.713200
vn -0.514900 0.470800 0.716400
vn -0.002000 -0.701700 0.712400
vn -0.270300 -0.643900 0.715800
vn -0.001300 0.702300 0.711800
vn -0.261300 0.647900 0.715500
vn -0.001300 0.702300 -0.711800
vn -0.261300 0.647900 -0.715500
vn 0.256000 0.650400 0.715200
vn 0.265000 -0.646300 -0.715600
vn 0.516800 -0.469100 -0.716200
vn 0.510600 0.475000 -0.716700
vn 0.664200 -0.224100 0.713200
vn 0.256000 0.650400 -0.715200
vn 0.510600 0.475000 0.716700
vn 0.664200 -0.224100 -0.713200
vn -0.519300 -0.467000 0.715700
g PlainFaces
f 20//1 22//1 11//1
f 34//2 66//2 62//2
f 24//3 21//3 16//3
f 64//4 80//4 50//4
f 88//5 86//5 54//5
f 72//6 68//6 36//6
f 62//7 57//7 26//7
f 33//8 31//8 46//8
f 14//9 17//9 8//9
f 70//10 72//10 38//10
f 12//8 2//8 9//8
f 18//11 19//11 4//11
f 86//12 74//12 42//12
f 84//13 82//13 48//13
f 74//14 70//14 40//14
f 36//15 68//15 66//15
f 76//16 88//16 56//16
f 80//17 84//17 52//17
f 82//18 78//18 45//18
f 78//19 76//19 44//19
f 75//3 65//3 67//3
f 60//20 64//20 32//20
f 23//21 13//21 1//21
f 57//22 60//22 30//22
f 61//3 59//3 58//3
f 81//3 79//3 63//3
f 79//3 81//3 83//3
f 65//3 75//3 77//3
f 75//3 85//3 87//3
f 67//3 69//3 73//3
f 69//3 67//3 71//3
f 63//3 61//3 65//3
f 61//3 63//3 59//3
f 63//3 77//3 81//3
f 75//3 73//3 85//3
f 73//3 75//3 67//3
f 65//3 77//3 63//3
f 6//1 20//1 11//1
f 28//2 34//2 62//2
f 15//3 24//3 16//3
f 32//4 64//4 50//4
f 56//5 88//5 54//5
f 38//6 72//6 36//6
f 28//7 62//7 26//7
f 29//8 27//8 25//8
f 43//8 35//8 33//8
f 35//8 39//8 37//8
f 43//8 53//8 41//8
f 53//8 43//8 55//8
f 31//8 47//8 46//8
f 47//8 49//8 51//8
f 27//8 29//8 31//8
f 31//8 33//8 27//8
f 35//8 41//8 39//8
f 33//8 46//8 43//8
f 47//8 31//8 49//8
f 43//8 41//8 35//8
f 3//9 14//9 8//9
f 40//10 70//10 38//10
f 5//8 12//8 9//8
f 7//11 18//11 4//11
f 54//12 86//12 42//12
f 52//13 84//13 48//13
f 42//14 74//14 40//14
f 34//15 36//15 66//15
f 44//16 76//16 56//16
f 50//17 80//17 52//17
f 48//18 82//18 45//18
f 45//19 78//19 44//19
f 30//20 60//20 32//20
f 10//21 23//21 1//21
f 26//22 57//22 30//22
g Bevels
f 1//23 3//24 2//25
f 4//26 6//27 5//28
f 7//29 9//30 8//31
f 10//32 12//33 11//34
f 13//35 15//36 14//37
f 16//38 18//39 17//40
f 19//41 21//42 20//43
f 22//44 24//45 23//46
f 1//23 13//35 14//37
f 14//37 15//36 16//38
f 4//26 5//28 9//30
f 3//24 8//31 9//30
f 8//31 17//40 18//39
f 16//38 21//42 19//41
f 2//25 12//33 10//32
f 5//28 6//27 11//34
f 11//34 22//44 23//46
f 13//35 23//46 24//45
f 21//42 24//45 22//44
f 6//27 4//26 19//41
f 76//47 75//47 87//48
f 27//49 33//50 34//50
f 75//47 76//47 78//51
f 43//52 46//53 45//53
f 74//54 86//55 85//55
f 82//56 84//57 83//57
f 37//58 39//59 40//59
f 61//60 62//60 66//61
f 48//62 47//62 51//63
f 42//64 41//64 53//65
f 32//66 50//67 49//67
f 64//68 63//68 79//69
f 78//51 82//56 81//56
f 29//70 30//70 32//66
f 50//67 52//63 51//63
f 70//71 69//71 71//72
f 58//73 57//73 62//60
f 36//74 35//74 37//58
f 59//75 63//68 64//68
f 34//50 33//50 35//74
f 25//76 26//76 30//70
f 58//73 59//75 60//75
f 45//53 46//53 47//62
f 66//61 68//77 67//77
f 39//59 41//64 42//64
f 68//77 72//72 71//72
f 85//55 86//55 88//48
f 44//52 56//78 55//78
f 25//76 27//49 28//49
f 80//69 79//69 83//57
f 69//71 70//71 74//54
f 53//65 55//78 56//78
f 3//24 1//23 14//37
f 17//40 14//37 16//38
f 7//29 4//26 9//30
f 2//25 3//24 9//30
f 7//29 8//31 18//39
f 18//39 16//38 19//41
f 1//23 2//25 10//32
f 12//33 5//28 11//34
f 10//32 11//34 23//46
f 15//36 13//35 24//45
f 20//43 21//42 22//44
f 20//43 6//27 19//41
f 88//48 76//47 87//48
f 28//49 27//49 34//50
f 77//51 75//47 78//51
f 44//52 43//52 45//53
f 73//54 74//54 85//55
f 81//56 82//56 83//57
f 38//58 37//58 40//59
f 65//61 61//60 66//61
f 52//63 48//62 51//63
f 54//65 42//64 53//65
f 31//66 32//66 49//67
f 80//69 64//68 79//69
f 77//51 78//51 81//56
f 31//66 29//70 32//66
f 49//67 50//67 51//63
f 72//72 70//71 71//72
f 61//60 58//73 62//60
f 38//58 36//74 37//58
f 60//75 59//75 64//68
f 36//74 34//50 35//74
f 29//70 25//76 30//70
f 57//73 58//73 60//75
f 48//62 45//53 47//62
f 65//61 66//61 67//77
f 40//59 39//59 42//64
f 67//77 68//77 71//72
f 87//48 85//55 88//48
f 43//52 44//52 55//78
f 26//76 25//76 28//49
f 84//57 80//69 83//57
f 73//54 69//71 74//54
f 54//65 53//65 56//78
